<?xml version="1.0" standalone="no"?>
<!DOCTYPE svg PUBLIC "-//W3C//DTD SVG 20010904//EN"
 "http://www.w3.org/TR/2001/REC-SVG-20010904/DTD/svg10.dtd">
<svg version="1.0" xmlns="http://www.w3.org/2000/svg"
 width="1280.000000pt" height="1280.000000pt" viewBox="0 0 1280.000000 1280.000000"
 preserveAspectRatio="xMidYMid meet">
<g transform="translate(0.000000,1280.000000) scale(0.100000,-0.100000)"
fill="#000000" stroke="none">
<path d="M7305 8295 c-433 -70 -793 -266 -1005 -547 -118 -157 -172 -309 -173
-493 0 -124 29 -256 80 -362 25 -52 31 -58 58 -58 27 0 30 3 33 36 2 19 -4 80
-13 135 -34 221 -39 313 -22 412 50 299 301 552 638 644 74 20 107 23 274 23
211 0 283 -8 292 -32 8 -21 -31 -139 -134 -408 -167 -437 -315 -763 -357 -791
-24 -15 -45 -16 -199 -10 -220 8 -287 -9 -287 -71 0 -26 0 -26 120 -24 105 3
279 -15 297 -30 19 -16 16 -46 -11 -126 -102 -301 -369 -614 -605 -709 -114
-46 -240 -49 -363 -8 -98 32 -129 88 -67 122 67 37 121 76 136 98 23 36 32 91
21 131 -13 46 -78 117 -134 144 -115 55 -255 -28 -295 -176 -15 -55 -6 -152
19 -201 30 -58 113 -131 195 -169 187 -89 493 -85 725 10 272 111 476 321 682
705 81 152 98 168 186 182 64 10 110 9 346 -8 84 -6 87 -6 113 20 26 26 27 55
3 81 -9 10 -102 12 -325 4 -177 -5 -176 -7 -128 129 43 125 240 624 330 838
43 102 77 169 95 186 l28 26 114 -34 c62 -19 213 -67 336 -106 201 -65 225
-75 238 -100 30 -57 61 -30 157 139 72 125 68 136 -61 168 -34 9 -181 54 -327
100 -381 121 -462 137 -715 141 -144 2 -232 -1 -295 -11z"/>
</g>
</svg>
